<?xml version="1.0" standalone="no"?>
<!DOCTYPE svg PUBLIC "-//W3C//DTD SVG 20010904//EN"
 "http://www.w3.org/TR/2001/REC-SVG-20010904/DTD/svg10.dtd">
<svg version="1.0" xmlns="http://www.w3.org/2000/svg"
 width="700.000000pt" height="700.000000pt" viewBox="0 0 700.000000 700.000000"
 preserveAspectRatio="xMidYMid meet">
<metadata>
Created by potrace 1.14, written by Peter Selinger 2001-2017
</metadata>
<g transform="translate(0.000000,700.000000) scale(0.100000,-0.100000)"
fill="#000000" stroke="none">
<path d="M3317 5144 c-48 -777 -684 -1413 -1461 -1461 l-106 -6 0 -177 0 -177
106 -6 c334 -21 653 -152 923 -380 307 -260 513 -674 538 -1081 l6 -106 179 0
178 0 0 63 c0 145 53 386 117 537 170 399 475 699 873 859 161 65 380 111 526
111 l51 0 6 -112 c32 -618 429 -1201 999 -1468 78 -36 220 -92 224 -87 10 10
103 175 134 238 28 55 37 81 28 83 -465 136 -814 466 -963 911 -33 97 -61 240
-70 358 l-7 87 -174 0 -174 0 0 173 0 174 -102 6 c-778 44 -1421 687 -1465
1465 l-6 102 -177 0 -177 0 -6 -106z"/>
<path d="M3320 1366 c0 -67 22 -243 41 -331 78 -365 274 -701 549 -945 l69
-61 118 21 c109 18 362 76 371 84 1 2 -30 22 -70 44 -348 191 -602 534 -688
927 -11 55 -24 144 -27 197 l-6 98 -179 0 -178 0 0 -34z"/>
</g>
</svg>
