<svg width="50" height="50" viewBox="0 0 50 50" xmlns="http://www.w3.org/2000/svg" xmlns:xlink="http://www.w3.org/1999/xlink">
	<path fill="#currentcolor" fill-rule="evenodd" stroke="none" d="M25 50a25 25 0 1 1 0-50 25 25 0 0 1 0 50Zm0-8c2.32 0 4.5-.44 6.56-1.33a17.38 17.38 0 0 0 9.1-9.11A16.3 16.3 0 0 0 42 25c0-2.32-.44-4.5-1.33-6.56a17.38 17.38 0 0 0-9.12-9.1A16.37 16.37 0 0 0 24.98 8c-2.32 0-4.5.44-6.55 1.33a17.28 17.28 0 0 0-9.1 9.11A16.3 16.3 0 0 0 8 25c0 2.32.44 4.5 1.33 6.56a17.38 17.38 0 0 0 9.11 9.1A16.3 16.3 0 0 0 25 42Zm0-2.53a14.34 14.34 0 0 1-7.3-1.98c-1.11-.64-2.1-1.4-2.95-2.3a8.07 8.07 0 0 1 2.44-2.43 12.1 12.1 0 0 1 3.54-1.54 16.5 16.5 0 0 1 4.27-.54c1.49 0 2.9.18 4.23.53 1.32.35 2.5.86 3.54 1.53a7.93 7.93 0 0 1 2.46 2.44 13.1 13.1 0 0 1-2.93 2.31 14.58 14.58 0 0 1-7.3 1.98Zm.07-11.62H25a5.4 5.4 0 0 1-2.9-.84 5.92 5.92 0 0 1-2.06-2.24 6.67 6.67 0 0 1-.76-3.2 6.18 6.18 0 0 1 2.82-5.33 5.22 5.22 0 0 1 2.9-.84 5.2 5.2 0 0 1 2.88.84 6.31 6.31 0 0 1 2.83 5.32c0 1.2-.25 2.27-.76 3.22a5.93 5.93 0 0 1-2.06 2.26c-.84.54-1.78.8-2.82.81Z"/>
</svg>
