<?xml version="1.0" encoding="UTF-8"?>
<!-- Generated by Pixelmator Pro 3.0.1 -->
<svg width="50" height="50" viewBox="0 0 50 50" xmlns="http://www.w3.org/2000/svg" xmlns:xlink="http://www.w3.org/1999/xlink">
    <g id="Gruppo-copia-5">
        <path id="Ellisse" fill="currentcolor" fill-rule="evenodd" stroke="none" d="M 50 25 C 50 11.192883 38.807117 0 25 0 C 11.192882 0 0 11.192883 0 25 C 0 38.807117 11.192882 50 25 50 C 38.807117 50 50 38.807117 50 25 Z"/>
        <path id="-copia" fill="currentcolor" fill-rule="evenodd" stroke="none" d="M 25 42 C 27.322239 42 29.508333 41.555519 31.558332 40.666668 C 33.608334 39.777813 35.416668 38.549999 36.983334 36.983334 C 38.549999 35.416668 39.77776 33.608334 40.666668 31.558332 C 41.555573 29.508333 42 27.322187 42 25 C 42 22.677813 41.555573 20.491667 40.666668 18.441668 C 39.77776 16.391666 38.549999 14.583332 36.983334 13.016666 C 35.416668 11.450001 33.605572 10.222187 31.549999 9.333332 C 29.494427 8.444481 27.305573 8 24.983334 8 C 22.661095 8 20.475 8.444481 18.424999 9.333332 C 16.375 10.222187 14.569427 11.450001 13.008333 13.016666 C 11.44724 14.583332 10.222239 16.391666 9.333333 18.441668 C 8.444427 20.491667 8 22.677813 8 25 C 8 27.322187 8.444427 29.508333 9.333333 31.558332 C 10.222239 33.608334 11.45 35.416668 13.016666 36.983334 C 14.583333 38.549999 16.391666 39.777813 18.441668 40.666668 C 20.491667 41.555519 22.677761 42 25 42 Z M 25 39.466667 C 23.72224 39.466667 22.461094 39.297188 21.216667 38.958332 C 19.97224 38.61948 18.797239 38.13052 17.691668 37.491669 C 16.586094 36.852814 15.605573 36.083332 14.75 35.183334 C 15.35 34.238853 16.163906 33.430519 17.191668 32.758331 C 18.219427 32.086143 19.4 31.572187 20.733334 31.216667 C 22.066668 30.861145 23.488907 30.683332 25 30.683332 C 26.488907 30.683332 27.89724 30.858334 29.225 31.208334 C 30.552761 31.558332 31.736094 32.069481 32.775002 32.741669 C 33.813908 33.413857 34.633335 34.227814 35.233334 35.183334 C 34.377762 36.083332 33.400002 36.852814 32.299999 37.491669 C 31.200001 38.13052 30.025 38.61948 28.775 38.958332 C 27.525 39.297188 26.266666 39.466667 25 39.466667 Z M 25 27.85 C 23.922239 27.838854 22.952761 27.558332 22.091667 27.008333 C 21.230574 26.458334 20.547239 25.711145 20.041666 24.766666 C 19.536095 23.822187 19.283333 22.755522 19.283333 21.566668 C 19.27224 20.444479 19.52224 19.416666 20.033333 18.483334 C 20.544428 17.549999 21.233334 16.802811 22.1 16.241665 C 22.966667 15.680519 23.933332 15.400002 25 15.400002 C 26.055573 15.400002 27.016666 15.680519 27.883333 16.241665 C 28.75 16.802811 29.438906 17.549999 29.950001 18.483334 C 30.461094 19.416666 30.716667 20.444479 30.716667 21.566668 C 30.716667 22.755522 30.461094 23.827812 29.950001 24.783333 C 29.438906 25.738853 28.75276 26.491667 27.891666 27.041666 C 27.030573 27.591667 26.066668 27.861145 25 27.85 Z"/>
    </g>
</svg>
