<?xml version="1.0" encoding="UTF-8"?>
<!-- Generated by Pixelmator Pro 3.1.1 -->
<svg width="1248" height="1248" viewBox="0 0 1248 1248" xmlns="http://www.w3.org/2000/svg" xmlns:xlink="http://www.w3.org/1999/xlink">
    <path id="Rettangolo" fill="#12322d" fill-rule="evenodd" stroke="none" visibility="hidden" d="M 0 1248 L 1248 1248 L 1248 0 L 0 0 Z"/>
    <path id="path1" fill="#ff0000" fill-rule="evenodd" stroke="none" d="M 0 944 L 1248 944 L 1248 304 L 0 304 Z"/>
    <path id="Rettangolo-copia" fill="#ff0000" fill-rule="evenodd" stroke="none" d="M 304 1248.205078 L 944 1248.205078 L 944 0 L 304 0 Z"/>
    <path id="path2" fill="#ffcf00" fill-rule="evenodd" stroke="none" d="M 944 304 L 1248 304 L 1248 0 L 944 0 Z"/>
    <path id="Rettangolo-copia-2" fill="#ffcf00" fill-rule="evenodd" stroke="none" d="M 0 1248 L 304 1248 L 304 944 L 0 944 Z"/>
    <path id="Rettangolo-copia-3" fill="#ffcf00" fill-rule="evenodd" stroke="none" d="M 944 1248 L 1248 1248 L 1248 944 L 944 944 Z"/>
    <path id="Rettangolo-copia-4" fill="#ffcf00" fill-rule="evenodd" stroke="none" d="M 0 304 L 304 304 L 304 0 L 0 0 Z"/>
    <path id="Arco-13" fill="#e4dcd7" fill-rule="evenodd" stroke="none" d="M 902.666687 481.426331 L 902.666687 1042 L 345.333344 1042 L 345.333344 481.426331 C 497.447144 481.426331 620.759705 358.113831 620.759705 206 L 627.240295 206 C 627.240295 358.113831 750.552856 481.426331 902.666687 481.426331 Z"/>
</svg>
