<svg xmlns="http://www.w3.org/2000/svg" viewBox="0 0 41 40">
  <path fill-rule="evenodd" d="M15.07 39.08H26.9c2.47 0 3.64-.8 4.92-2.18l7.55-8.33a5.36 5.36 0 0 0 1.62-4.28v-8.9c0-1.94-.35-2.88-1.62-4.28l-7.55-8.33A5.86 5.86 0 0 0 26.9.58H15.07c-2.47 0-3.66.82-4.92 2.2L2.6 11.11C1.3 12.51.98 13.45.98 15.4v8.89c0 1.93.33 2.88 1.62 4.28l7.55 8.33a5.82 5.82 0 0 0 4.92 2.18zm-.62-11.07a1.61 1.61 0 0 1-1.62-1.62c0-.43.18-.84.5-1.13l5.38-5.4-5.39-5.4a1.58 1.58 0 0 1 1.13-2.73c.45 0 .8.16 1.1.45L21 17.6l5.47-5.43a1.47 1.47 0 0 1 1.1-.46 1.58 1.58 0 0 1 1.6 1.6c0 .44-.11.79-.46 1.14l-5.41 5.41 5.39 5.4c.33.28.47.7.47 1.14a1.6 1.6 0 0 1-1.62 1.62c-.45 0-.86-.16-1.15-.47L21 22.13l-5.37 5.41c-.31.31-.72.47-1.17.47z"/>
</svg>
