<svg width="47" height="36" viewBox="0 0 47 36" xmlns="http://www.w3.org/2000/svg" xmlns:xlink="http://www.w3.org/1999/xlink">
	<path id="path1" fill="currentcolor" fill-rule="evenodd" stroke="none" d="M11.2 35.71c5.94 0 10.68-7.23 10.68-17.81C21.88 7.3 17.14.1 11.2.1 5.24.1.5 7.3.5 17.9c0 10.58 4.74 17.8 10.7 17.8Zm24.26 0c5.95 0 10.7-7.23 10.7-17.81C46.16 7.3 41.41.1 35.46.1c-5.94 0-10.69 7.2-10.69 17.8 0 10.58 4.75 17.81 10.69 17.81ZM6.98 24.8c3.26 0 5.43-2.26 5.43-5.7 0-3.38-2.17-5.66-5.43-5.66-1.4 0-2.6.4-3.5 1.15C4.25 7.53 7.47 2.9 11.2 2.86c4.32-.02 7.93 6.1 7.93 15.04 0 8.89-3.61 15.02-7.93 15.06-3.22 0-6.07-3.46-7.29-9a5.6 5.6 0 0 0 3.07.83Zm24.24 0c3.26 0 5.47-2.26 5.47-5.7 0-3.38-2.21-5.66-5.47-5.66-1.39 0-2.6.4-3.52 1.15.78-7.05 4-11.68 7.76-11.7 4.27 0 7.9 6.11 7.9 15.02 0 8.9-3.63 15.02-7.9 15.04-3.25 0-6.1-3.48-7.3-8.99.83.53 1.89.84 3.06.84ZM5.44 18.43c-.7-.1-1.14-.94-.98-1.8.18-.84.84-1.47 1.5-1.33.7.14 1.14.94.96 1.78-.15.86-.8 1.46-1.48 1.35Zm24.24 0c-.69-.12-1.14-.94-.96-1.8.17-.84.82-1.47 1.5-1.33.7.12 1.12.94.94 1.78-.16.86-.8 1.46-1.48 1.35Z"/>
</svg>
