<?xml version="1.0" encoding="UTF-8"?>
<!-- Generated by Pixelmator Pro 3.2.1 -->
<svg width="100" height="100" viewBox="0 0 100 100" xmlns="http://www.w3.org/2000/svg" xmlns:xlink="http://www.w3.org/1999/xlink">
    <g id="favicon">
        <path id="circle" fill="#e4dbd7" fill-rule="evenodd" stroke="none" d="M 100 50 C 100 22.385757 77.614243 0 50 0 C 22.385761 0 0 22.385757 0 50 C 0 77.614243 22.385761 100 50 100 C 77.614243 100 100 77.614243 100 50 Z"/>
        <path id="logo" fill="#1a1a1a" fill-rule="evenodd" stroke="none" d="M 56.87806 99.530581 C 51.157425 94.949126 47.493815 87.905673 47.493815 80.006557 L 52.497135 80.006557 C 52.497135 87.961116 57.14189 94.830836 63.867155 98.05174 C 61.599488 98.704988 59.265671 99.202085 56.87806 99.530581 Z M 92.494824 76.36004 C 82.352458 73.174148 74.995475 63.698676 74.995475 52.504897 L 79.998796 52.504897 C 79.998796 61.815677 86.362339 69.640216 94.977409 71.866648 C 94.225375 73.410624 93.396159 74.910082 92.494824 76.36004 Z M 74.995475 52.504897 C 62.569162 52.504897 52.497135 62.576915 52.497135 75.003237 L 47.493815 75.003237 C 47.493815 62.576887 37.421825 52.504897 24.995475 52.504897 L 24.995475 47.501577 C 37.421813 47.501577 47.493815 37.429583 47.493815 25.003237 L 52.497135 25.003237 C 52.497135 37.429554 62.569174 47.501577 74.995475 47.501577 L 74.995475 52.504897 Z"/>
    </g>
</svg>
