<?xml version="1.0" encoding="UTF-8"?>
<!-- Generated by Pixelmator Pro 3.0.1 -->
<svg width="500" height="500" viewBox="0 0 3000 3000" xmlns="http://www.w3.org/2000/svg" xmlns:xlink="http://www.w3.org/1999/xlink">
    <path id="Rettangolo" fill="#e4dbd7" fill-rule="evenodd" stroke="none" visibility="hidden" d="M 0 3000 L 3000 3000 L 3000 0 L 0 0 Z"/>
    <path id="Percorso" fill="#e4dbd7" fill-rule="evenodd" stroke="none" d="M 3000 1500 C 3000 671.572754 2328.427246 0 1500 0 C 671.572876 0 0 671.572754 0 1500 C 0 2328.427246 671.572876 3000 1500 3000 C 2328.427246 3000 3000 2328.427246 3000 1500 Z"/>
    <g id="logo">
        <path id="Rettangolo-copia-3" fill="#1a1a1a" fill-rule="evenodd" stroke="none" d="M 534.135864 1693.587524 C 534.135864 1453.612549 339.629547 1259.106323 99.654602 1259.106323 L 99.654602 1162.483765 C 339.629272 1162.483765 534.135864 967.977173 534.135864 728.002441 L 630.758362 728.002441 C 630.758362 967.976563 825.265564 1162.483765 1065.239624 1162.483765 L 1065.239624 1259.106323 C 825.26532 1259.106323 630.758362 1453.613159 630.758362 1693.587524 L 534.135864 1693.587524 Z"/>
        <path id="Ellisse" fill="#1a1a1a" fill-rule="evenodd" stroke="none" d="M 1016.928345 2273.002441 C 750.289978 2273.002441 534.135864 2056.848389 534.135864 1790.209961 L 630.758362 1790.209961 C 630.758362 2003.485352 803.653015 2176.379883 1016.928345 2176.379883 C 1230.203735 2176.379883 1403.098389 2003.485352 1403.098389 1790.209961 L 1499.720947 1790.209961 C 1499.720947 2056.848389 1283.566895 2273.002441 1016.928345 2273.002441 Z"/>
        <path id="Ellisse-copia-2" fill="#1a1a1a" fill-rule="evenodd" stroke="none" d="M 1885.890869 2273.002441 C 1619.252441 2273.002441 1403.098389 2056.848389 1403.098389 1790.209961 L 1499.720947 1790.209961 C 1499.720947 2003.485352 1672.615601 2176.379883 1885.890869 2176.379883 C 2099.16626 2176.379883 2272.060791 2003.485352 2272.060791 1790.209961 L 2368.68335 1790.209961 C 2368.68335 2056.848389 2152.529297 2273.002441 1885.890869 2273.002441 Z"/>
        <path id="Ellisse-copia-4" fill="#1a1a1a" fill-rule="evenodd" stroke="none" d="M 1548.032104 1741.898682 C 1281.393799 1741.898682 1065.239624 1525.744629 1065.239624 1259.106323 L 1161.862061 1259.106323 C 1161.862061 1472.381592 1334.756714 1645.276245 1548.032104 1645.276245 C 1761.307373 1645.276245 1934.202148 1472.381592 1934.202148 1259.106323 L 2030.824585 1259.106323 C 2030.824585 1525.744629 1814.670654 1741.898682 1548.032104 1741.898682 Z"/>
        <path id="Ellisse-copia-3" fill="#1a1a1a" fill-rule="evenodd" stroke="none" d="M 2416.994629 1741.898682 C 2150.356201 1741.898682 1934.202148 1525.744629 1934.202148 1259.106323 L 2030.824585 1259.106323 C 2030.824585 1472.381592 2203.719238 1645.276245 2416.994629 1645.276245 C 2630.27002 1645.276245 2803.164551 1472.381592 2803.164551 1259.106323 L 2899.787109 1259.106323 C 2899.787109 1525.744629 2683.633057 1741.898682 2416.994629 1741.898682 Z"/>
    </g>
</svg>
