<svg width="100" height="100" viewBox="0 0 100 100" xmlns="http://www.w3.org/2000/svg" xmlns:xlink="http://www.w3.org/1999/xlink">
	<g id="favicon">
		<path id="circle" fill="#e4dbd7" fill-rule="evenodd" stroke="none"  d="M100 50A50 50 0 1 0 0 50a50 50 0 0 0 100 0Z"/>
		<path id="logo" fill="#1a1a1a" fill-rule="evenodd" stroke="none"  d="M56.88 99.53a24.95 24.95 0 0 1-9.39-19.52h5a20 20 0 0 0 11.38 18.04c-2.27.65-4.6 1.15-7 1.48Zm35.61-23.17A25.01 25.01 0 0 1 75 52.5h5a20 20 0 0 0 14.99 19.37 49.9 49.9 0 0 1-2.49 4.49ZM75 52.5A22.5 22.5 0 0 0 52.5 75h-5A22.5 22.5 0 0 0 25 52.5v-5A22.5 22.5 0 0 0 47.5 25h5A22.5 22.5 0 0 0 75 47.5v5Z"/>
	</g>
</svg>
