<svg width="100" height="100" viewBox="0 0 100 100" xmlns="http://www.w3.org/2000/svg" xmlns:xlink="http://www.w3.org/1999/xlink">
	<path id="path1" fill="currentcolor" fill-rule="evenodd" stroke="none" d="M3.1 21.02h76.95a3.15 3.15 0 0 0 3.18-3.14c0-1.73-1.45-3.1-3.18-3.1H3.1a3.07 3.07 0 0 0-3.1 3.1 3.08 3.08 0 0 0 3.1 3.14Zm0 21.64h25.8a3.12 3.12 0 1 0 0-6.23H3.1a3.07 3.07 0 0 0-3.1 3.1 3.08 3.08 0 0 0 3.1 3.13ZM45.48 85.5h48.9c3.43 0 5.62-2.15 5.62-5.54V42.38c0-3.3-2.19-5.5-5.62-5.5h-48.9c-3.43 0-5.62 2.2-5.62 5.5v37.58c0 3.4 2.19 5.54 5.62 5.54Zm.33-36.8a1.3 1.3 0 0 1-1.37-1.37V42.8c0-.83.54-1.4 1.37-1.4h3.88c.87 0 1.4.57 1.4 1.4v4.54c0 .79-.53 1.37-1.4 1.37Zm44.36 0c-.87 0-1.4-.58-1.4-1.37V42.8c0-.83.53-1.4 1.4-1.4h3.88c.83 0 1.37.57 1.37 1.4v4.54a1.3 1.3 0 0 1-1.37 1.37Zm-33.33 9.4c-.79 0-1.28-.5-1.28-1.32V44.36c0-.83.5-1.32 1.28-1.32h26.18c.79 0 1.28.5 1.28 1.32v12.43c0 .83-.5 1.32-1.28 1.32ZM45.8 59.43c-.83 0-1.37-.57-1.37-1.28v-4.58c0-.83.54-1.4 1.37-1.4h3.88c.87 0 1.4.57 1.4 1.4v4.58c0 .7-.53 1.28-1.4 1.28Zm44.36 0c-.87 0-1.4-.57-1.4-1.28v-4.58c0-.83.53-1.4 1.4-1.4h3.88c.83 0 1.37.57 1.37 1.4v4.58c0 .7-.54 1.28-1.37 1.28ZM3.1 64.31h25.8a3.11 3.11 0 1 0 0-6.24H3.1a3.07 3.07 0 0 0-3.1 3.1 3.1 3.1 0 0 0 3.1 3.14Zm42.7 5.86c-.82 0-1.36-.53-1.36-1.28v-4.58c0-.83.54-1.4 1.37-1.4h3.88c.87 0 1.4.57 1.4 1.4v4.58c0 .75-.53 1.28-1.4 1.28Zm44.37 0c-.87 0-1.4-.53-1.4-1.28v-4.58c0-.83.53-1.4 1.4-1.4h3.88c.83 0 1.37.57 1.37 1.4v4.58c0 .75-.54 1.28-1.37 1.28ZM56.84 79.3c-.79 0-1.28-.5-1.28-1.32v-12.3c0-.88.5-1.37 1.28-1.37h26.18c.79 0 1.28.5 1.28 1.36v12.31c0 .83-.5 1.32-1.28 1.32ZM45.8 80.95c-.83 0-1.37-.53-1.37-1.32v-4.58c0-.83.54-1.4 1.37-1.4h3.88c.87 0 1.4.57 1.4 1.4v4.58c0 .79-.53 1.32-1.4 1.32Zm44.36 0c-.87 0-1.4-.53-1.4-1.32v-4.58c0-.83.53-1.4 1.4-1.4h3.88c.83 0 1.37.57 1.37 1.4v4.58c0 .79-.54 1.32-1.37 1.32ZM3.1 85.91h25.8a3.11 3.11 0 1 0 0-6.24H3.1A3.1 3.1 0 0 0 0 82.81c0 1.74 1.36 3.1 3.1 3.1Z"/>
</svg>
