<svg xmlns="http://www.w3.org/2000/svg" viewBox="0 0 68 39"><g fill="#1a1a1a" fill-rule="evenodd"><path d="M10.6 25.1c0-5.7-4.7-10.4-10.4-10.4v-2.3c5.7 0 10.4-4.7 10.4-10.4h2.3c0 5.7 4.7 10.4 10.4 10.4v2.3c-5.7 0-10.4 4.7-10.4 10.4h-2.3ZM22.2 39c-6.4 0-11.6-5.2-11.6-11.6h2.3a9.2 9.2 0 0 0 18.5 0h2.3c0 6.4-5.2 11.6-11.5 11.6Z"/><path d="M43 39c-6.4 0-11.6-5.2-11.6-11.6h2.3a9.2 9.2 0 0 0 18.5 0h2.3C54.5 33.8 49.4 39 43 39ZM34.9 26.3c-6.4 0-11.6-5.2-11.6-11.6h2.3a9.2 9.2 0 0 0 18.5 0h2.3c0 6.4-5.1 11.6-11.5 11.6Z"/><path d="M55.7 26.3C49.3 26.3 44 21 44 14.7h2.3a9.2 9.2 0 0 0 18.5 0h2.3c0 6.4-5.1 11.6-11.5 11.6Z"/></g></svg>
