<svg width="46" height="26" viewBox="0 0 46 26" xmlns="http://www.w3.org/2000/svg" xmlns:xlink="http://www.w3.org/1999/xlink">
	<path id="logo" fill="#currentcolor" fill-rule="evenodd" stroke="none" d="M15 25a7.81 7.81 0 0 1-7.8-7.81h1.56a6.25 6.25 0 1 0 12.5 0h1.56a6.25 6.25 0 0 0 12.5 0h1.56a7.81 7.81 0 0 1-14.85 3.4A7.81 7.81 0 0 1 15 25Zm8.6-8.6a7.81 7.81 0 0 1-7.81-7.8h1.56a6.25 6.25 0 0 0 12.5 0h1.56a6.25 6.25 0 0 0 12.5 0h1.56A7.81 7.81 0 0 1 30.63 12a7.81 7.81 0 0 1-7.03 4.4Zm-7.81-7.8a7.03 7.03 0 0 0-7.03 7.03H7.19A7.03 7.03 0 0 0 .16 8.59V7.03A7.03 7.03 0 0 0 7.2 0h1.57a7.03 7.03 0 0 0 7.03 7.03V8.6Z"/>
</svg>
