<?xml version="1.0" encoding="UTF-8"?>
<!-- Generated by Pixelmator Pro 3.1.1 -->
<svg width="50" height="50" viewBox="0 0 50 50" xmlns="http://www.w3.org/2000/svg" xmlns:xlink="http://www.w3.org/1999/xlink">
    <g id="Gruppo-copia-5">
        <path id="Ellisse" fill="currentcolor" fill-rule="evenodd" stroke="none" d="M 50 25 C 50 11.192883 38.807117 0 25 0 C 11.192882 0 0 11.192883 0 25 C 0 38.807117 11.192882 50 25 50 C 38.807117 50 50 38.807117 50 25 Z"/>
        <path id="path1" fill="currentcolor" fill-rule="evenodd" stroke="none" d="M 24.996094 42.976563 C 34.569622 42.976563 42.496094 35.032936 42.496094 25.476563 C 42.496094 15.903034 34.552467 7.976563 24.978937 7.976563 C 15.422565 7.976563 7.496094 15.903034 7.496094 25.476563 C 7.496094 35.032936 15.439721 42.976563 24.996094 42.976563 Z M 24.996094 40.059895 C 16.898054 40.059895 10.429917 33.5746 10.429917 25.476563 C 10.429917 17.378525 16.880898 10.89323 24.978937 10.89323 C 33.076977 10.89323 39.579426 17.378525 39.579426 25.476563 C 39.579426 33.5746 33.094131 40.059895 24.996094 40.059895 Z M 16.349035 20.998621 L 33.677467 20.998621 C 34.432369 20.998621 34.981388 20.518229 34.981388 19.780483 C 34.981388 19.059896 34.432369 18.579504 33.677467 18.579504 L 16.349035 18.579504 C 15.576976 18.579504 15.045114 19.059896 15.045114 19.780483 C 15.045114 20.518229 15.576976 20.998621 16.349035 20.998621 Z M 16.349035 26.677544 L 33.677467 26.677544 C 34.432369 26.677544 34.981388 26.197151 34.981388 25.459406 C 34.981388 24.738817 34.432369 24.258425 33.677467 24.258425 L 16.349035 24.258425 C 15.576976 24.258425 15.045114 24.738817 15.045114 25.459406 C 15.045114 26.197151 15.576976 26.677544 16.349035 26.677544 Z M 16.349035 32.373619 L 33.677467 32.373619 C 34.432369 32.373619 34.981388 31.876072 34.981388 31.155483 C 34.981388 30.434896 34.432369 29.954504 33.677467 29.954504 L 16.349035 29.954504 C 15.576976 29.954504 15.045114 30.434896 15.045114 31.155483 C 15.045114 31.876072 15.576976 32.373619 16.349035 32.373619 Z"/>
    </g>
</svg>
