<svg width="50" height="50" viewBox="0 0 50 50" xmlns="http://www.w3.org/2000/svg" xmlns:xlink="http://www.w3.org/1999/xlink">
	<path id="menu" fill="#currentcolor" fill-rule="evenodd" stroke="none" d="M25 50a25 25 0 1 1 0-50 25 25 0 0 1 0 50Zm0-7.5c9.57 0 17.5-7.94 17.5-17.5 0-9.57-7.95-17.5-17.52-17.5A17.61 17.61 0 0 0 7.5 25c0 9.56 7.94 17.5 17.5 17.5Zm0-2.91c-8.1 0-14.57-6.49-14.57-14.59a14.5 14.5 0 0 1 14.55-14.58c8.1 0 14.6 6.48 14.6 14.58S33.09 39.6 25 39.6Zm-8.65-7.69h17.33c.75 0 1.3-.5 1.3-1.22s-.55-1.2-1.3-1.2H16.35c-.77 0-1.3.48-1.3 1.2s.53 1.22 1.3 1.22Zm0-5.7h17.33c.75 0 1.3-.48 1.3-1.21 0-.72-.55-1.2-1.3-1.2H16.35c-.77 0-1.3.48-1.3 1.2 0 .73.53 1.21 1.3 1.21Zm0-5.67h17.33c.75 0 1.3-.49 1.3-1.22 0-.72-.55-1.2-1.3-1.2H16.35c-.77 0-1.3.48-1.3 1.2 0 .73.53 1.22 1.3 1.22Z"/>
</svg>
