<?xml version="1.0" encoding="UTF-8"?>
<!-- Generated by Pixelmator Pro 3.2.2 -->
<svg width="40" height="40" viewBox="0 0 40 40" xmlns="http://www.w3.org/2000/svg" xmlns:xlink="http://www.w3.org/1999/xlink">
    <path id="moon" fill="currentcolor" fill-rule="evenodd" stroke="none" d="M 30.710938 26.695313 C 20.144531 26.695313 13.386719 20.074219 13.386719 9.488281 C 13.386719 7.300781 13.914063 4.175781 14.617188 2.554688 C 14.792969 2.105469 14.832031 1.832031 14.832031 1.636719 C 14.832031 1.109375 14.441406 0.523438 13.679688 0.523438 C 13.464844 0.523438 12.996094 0.582031 12.566406 0.738281 C 5.339844 3.628906 0.496094 11.402344 0.496094 19.585938 C 0.496094 31.070313 9.246094 39.273438 20.691406 39.273438 C 29.109375 39.273438 36.394531 34.175781 38.816406 27.808594 C 38.992188 27.359375 39.03125 26.890625 39.03125 26.714844 C 39.03125 25.992188 38.425781 25.503906 37.878906 25.503906 C 37.625 25.503906 37.410156 25.5625 37.039063 25.679688 C 35.535156 26.167969 33.113281 26.695313 30.710938 26.695313 Z"/>
</svg>
