<svg width="40" height="40" viewBox="0 0 40 40" xmlns="http://www.w3.org/2000/svg" xmlns:xlink="http://www.w3.org/1999/xlink">
	<path id="moon" fill="currentcolor" fill-rule="evenodd" stroke="none" d="M30.71 26.7c-10.57 0-17.32-6.63-17.32-17.21a21 21 0 0 1 1.23-6.94c.17-.44.21-.72.21-.91 0-.53-.39-1.12-1.15-1.12-.22 0-.68.06-1.11.22C5.34 3.63.5 11.4.5 19.59c0 11.48 8.75 19.68 20.2 19.68 8.4 0 15.7-5.1 18.12-11.46.17-.45.21-.92.21-1.1 0-.72-.6-1.2-1.15-1.2-.26 0-.47.05-.84.17-1.5.49-3.93 1.02-6.33 1.02Z"/>
</svg>
