<?xml version="1.0" encoding="UTF-8"?>
<!-- Generated by Pixelmator Pro 3.0.1 -->
<svg width="1000" height="1319" viewBox="0 0 1000 1319" xmlns="http://www.w3.org/2000/svg" xmlns:xlink="http://www.w3.org/1999/xlink">
    <path id="Rettangolo" fill="#d5d5d5" fill-rule="evenodd" stroke="none" d="M 0 1319 L 1000 1319 L 1000 0 L 0 0 Z"/>
    <path id="path1" fill="#646464" fill-rule="evenodd" stroke="none" d="M 251.059586 878.845093 C 237.213104 878.845093 226.299088 874.854736 218.31842 866.873657 C 210.337769 858.892517 206.346985 847.882935 206.346985 833.843994 L 206.346985 816.247437 L 294.906799 738.937866 C 301.253082 733.360962 307.791412 729.129944 314.522644 726.2453 C 321.253876 723.360596 327.792175 721.918274 334.138489 721.918274 C 349.138855 721.918274 362.985321 727.78363 375.677948 739.514832 L 430.775391 789.131409 L 568.663269 666.820801 C 582.701782 654.512634 598.183533 648.358826 615.106689 648.358826 C 622.991821 648.358826 630.924683 649.897156 638.905334 652.974304 C 646.885986 656.051453 654.241943 660.762939 660.973206 667.109253 L 793.66864 789.996765 L 793.66864 834.420898 C 793.66864 848.267395 789.677856 859.133179 781.697205 867.017822 C 773.716553 874.902466 762.898987 878.845093 749.244507 878.845093 Z M 376.254883 666.820801 C 363.177338 666.820801 351.254578 663.599426 340.484802 657.157104 C 329.714996 650.714783 321.109619 642.108521 314.66687 631.339172 C 308.224121 620.569824 305.003174 608.646179 305.003174 595.569092 C 305.003174 582.492004 308.224121 570.568359 314.66687 559.799011 C 321.109619 549.029663 329.714996 540.423401 340.484802 533.981079 C 351.254578 527.538757 363.177338 524.317383 376.254883 524.317383 C 389.139496 524.317383 400.966705 527.538757 411.736481 533.981079 C 422.506256 540.423401 431.111633 549.029663 437.554413 559.799011 C 443.997162 570.568359 447.218109 582.492004 447.218109 595.569092 C 447.218109 608.646179 443.997162 620.569824 437.554413 631.339172 C 431.111633 642.108521 422.506256 650.714783 411.736481 657.157104 C 400.966705 663.599426 389.139496 666.820801 376.254883 666.820801 Z M 250.482651 925 L 749.532959 925 C 779.91864 925 802.611145 917.548096 817.611511 902.643677 C 832.611877 887.73938 840.112061 865.479492 840.112061 835.863281 L 840.112061 483.354919 C 840.112061 453.738647 832.611877 431.430603 817.611511 416.430237 C 802.611145 401.429871 779.91864 393.929688 749.532959 393.929688 L 250.482651 393.929688 C 220.289032 393.929688 197.645157 401.381653 182.54834 416.286011 C 167.451538 431.190369 159.90358 453.546204 159.90358 483.354919 L 159.90358 835.863281 C 159.90358 865.479492 167.451538 887.73938 182.54834 902.643677 C 197.645157 917.548096 220.289032 925 250.482651 925 Z"/>
</svg>
