<?xml version="1.0" encoding="UTF-8"?>
<!-- Generated by Pixelmator Pro 3.2.2 -->
<svg width="500" height="750" viewBox="0 0 500 750" xmlns="http://www.w3.org/2000/svg" xmlns:xlink="http://www.w3.org/1999/xlink">
	<path id="Rettangolo" fill="#d5d5d5" fill-rule="evenodd" stroke="none" d="M 0 750 L 500 750 L 500 0 L 0 0 Z"/>
	<path id="frame" fill="#646464" fill-rule="evenodd" stroke="none" d="M 92.206673 513.798523 C 83.446213 513.798523 76.541084 511.273865 71.491844 506.224365 C 66.442604 501.174805 63.917698 494.209229 63.917698 485.326996 L 63.917698 474.193939 L 119.948128 425.281342 C 123.963326 421.75293 128.100021 419.07605 132.358765 417.250977 C 136.617523 415.425842 140.754196 414.513336 144.769409 414.513336 C 154.259918 414.513336 163.020355 418.224243 171.050781 425.646393 L 205.910095 457.038025 L 293.149628 379.653992 C 302.031586 371.866821 311.82663 367.973389 322.533661 367.973389 C 327.522461 367.973389 332.541473 368.946686 337.590698 370.893524 C 342.639923 372.840393 347.293945 375.821289 351.552704 379.836487 L 435.50705 457.585541 L 435.50705 485.691986 C 435.50705 494.452454 432.982147 501.327087 427.932922 506.315552 C 422.883667 511.304077 416.039581 513.798523 407.400604 513.798523 Z M 171.415802 379.653992 C 163.141846 379.653992 155.598495 377.615875 148.784622 373.539917 C 141.970734 369.463959 136.526245 364.018921 132.450027 357.205322 C 128.373795 350.391724 126.335945 342.847809 126.335945 334.574158 C 126.335945 326.300476 128.373795 318.756561 132.450027 311.942963 C 136.526245 305.129364 141.970734 299.684326 148.784622 295.608368 C 155.598495 291.53241 163.141846 289.494293 171.415802 289.494293 C 179.567703 289.494293 187.050598 291.53241 193.864471 295.608368 C 200.678329 299.684326 206.122833 305.129364 210.199081 311.942963 C 214.275299 318.756561 216.313141 326.300476 216.313141 334.574158 C 216.313141 342.847809 214.275299 350.391724 210.199081 357.205322 C 206.122833 364.018921 200.678329 369.463959 193.864471 373.539917 C 187.050598 377.615875 179.567703 379.653992 171.415802 379.653992 Z M 91.841652 543 L 407.583099 543 C 426.807648 543 441.164856 538.285278 450.655334 528.855469 C 460.145844 519.425781 464.891083 505.342285 464.891083 486.604584 L 464.891083 263.577972 C 464.891083 244.84021 460.145844 230.726257 450.655334 221.235779 C 441.164856 211.745239 426.807648 207 407.583099 207 L 91.841652 207 C 72.738617 207 58.412186 211.714722 48.860664 221.144531 C 39.309147 230.57428 34.533672 244.718445 34.533672 263.577972 L 34.533672 486.604584 C 34.533672 505.342285 39.309147 519.425781 48.860664 528.855469 C 58.412186 538.285278 72.738617 543 91.841652 543 Z"/>
</svg>
