<svg width="500" height="750" viewBox="0 0 500 750" xmlns="http://www.w3.org/2000/svg" xmlns:xlink="http://www.w3.org/1999/xlink">
	<path id="Rettangolo" fill="#d5d5d5" fill-rule="evenodd" stroke="none" d="M0 750h500V0H0Z"/>
	<path id="frame" fill="#646464" fill-rule="evenodd" stroke="none" d="M92.2 513.8c-8.75 0-15.66-2.53-20.7-7.58-5.06-5.05-7.58-12.01-7.58-20.9V474.2l56.03-48.9a46.85 46.85 0 0 1 12.4-8.04 31.4 31.4 0 0 1 12.42-2.74c9.49 0 18.25 3.71 26.28 11.14l34.86 31.39 87.24-77.39c8.88-7.78 18.68-11.68 29.38-11.68 5 0 10.01.98 15.06 2.92a42.66 42.66 0 0 1 13.96 8.95l83.96 77.75v28.1c0 8.76-2.53 15.64-7.58 20.63-5.05 4.98-11.89 7.48-20.53 7.48Zm79.22-134.15a43.25 43.25 0 0 1-22.64-6.11 46.67 46.67 0 0 1-16.33-16.33 43.25 43.25 0 0 1-6.11-22.64c0-8.27 2.03-15.81 6.11-22.63a46.67 46.67 0 0 1 16.33-16.33 43.25 43.25 0 0 1 22.64-6.12c8.15 0 15.63 2.04 22.44 6.12a46.67 46.67 0 0 1 16.34 16.33 43.25 43.25 0 0 1 6.11 22.63c0 8.28-2.03 15.82-6.11 22.64a46.67 46.67 0 0 1-16.34 16.33 42.92 42.92 0 0 1-22.44 6.11ZM91.84 543h315.74c19.23 0 33.58-4.71 43.08-14.14 9.49-9.43 14.23-23.52 14.23-42.26V263.58c0-18.74-4.74-32.85-14.23-42.34-9.5-9.5-23.85-14.24-43.08-14.24H91.84c-19.1 0-33.43 4.71-42.98 14.14-9.55 9.43-14.33 23.58-14.33 42.44V486.6c0 18.74 4.78 32.83 14.33 42.26S72.74 543 91.84 543Z"/>
</svg>
