<?xml version="1.0" encoding="UTF-8"?>
<!-- Generated by Pixelmator Pro 3.0.1 -->
<svg width="173" height="26" viewBox="0 0 173 26" xmlns="http://www.w3.org/2000/svg" xmlns:xlink="http://www.w3.org/1999/xlink">
    <path id="----" fill="#ff9400" fill-rule="evenodd" stroke="none" d="M 151.385529 25.490921 C 151.629013 25.679398 151.903839 25.744186 152.210114 25.685287 C 152.516388 25.626389 152.850128 25.467361 153.211395 25.208206 L 159.442886 20.625883 L 165.686157 25.208206 C 166.047424 25.467361 166.381165 25.626389 166.687439 25.685287 C 166.993698 25.744186 167.268539 25.679398 167.512009 25.490921 C 167.755493 25.310322 167.90274 25.066851 167.953751 24.760576 C 168.004776 24.454304 167.95575 24.08913 167.806503 23.66506 L 165.344543 16.338055 L 171.634933 11.814629 C 172.003998 11.555474 172.259262 11.288442 172.40062 11.013605 C 172.541962 10.73877 172.565521 10.456055 172.471283 10.165463 C 172.37706 9.88275 172.192474 9.670713 171.917648 9.529356 C 171.642807 9.388 171.277634 9.321222 170.822128 9.329102 L 163.106384 9.376221 L 160.762222 2.013874 C 160.620865 1.581926 160.442169 1.256069 160.226242 1.036156 C 160.0103 0.816242 159.749161 0.706322 159.442886 0.706322 C 159.144485 0.706322 158.887253 0.816242 158.67131 1.036156 C 158.455368 1.256069 158.276688 1.581926 158.13533 2.013874 L 155.791168 9.376221 L 148.075424 9.329102 C 147.619919 9.321222 147.254745 9.388 146.979904 9.529356 C 146.705063 9.670713 146.520493 9.88275 146.426254 10.165463 C 146.332016 10.456055 146.355576 10.73877 146.496933 11.013605 C 146.63829 11.288442 146.893539 11.555474 147.262619 11.814629 L 153.553009 16.338055 L 151.091034 23.66506 C 150.941803 24.08913 150.892776 24.454304 150.943787 24.760576 C 150.994812 25.066851 151.142059 25.310322 151.385529 25.490921 Z M 159.442886 18.599766 L 159.442886 3.568802 C 159.474319 3.568802 159.497879 3.600239 159.513565 3.66304 L 161.563232 10.483517 C 161.633911 10.72699 161.747818 10.901698 161.904846 11.007715 C 162.06189 11.113733 162.262146 11.16284 162.505615 11.154963 L 169.63237 11.025385 C 169.695175 11.025385 169.730515 11.037165 169.738388 11.060724 C 169.754074 11.092161 169.734482 11.123526 169.679489 11.154963 L 163.813171 15.207197 C 163.679688 15.301435 163.577576 15.405465 163.506897 15.519361 C 163.436218 15.633256 163.398895 15.756944 163.394989 15.890423 C 163.391083 16.023903 163.416565 16.16526 163.471558 16.314495 L 165.815735 23.052513 C 165.823608 23.10751 165.823608 23.142849 165.815735 23.158529 C 165.800049 23.182089 165.764709 23.174212 165.709717 23.13497 L 160.043655 18.811802 C 159.847305 18.654762 159.647049 18.584084 159.442886 18.599766 Z M 115.021439 25.490921 C 115.264877 25.679398 115.539749 25.744186 115.846024 25.685287 C 116.152298 25.626389 116.486069 25.467361 116.847298 25.208206 L 123.078789 20.625883 L 129.322052 25.208206 C 129.683334 25.467361 130.017059 25.626389 130.323334 25.685287 C 130.629608 25.744186 130.904449 25.679398 131.147919 25.490921 C 131.391388 25.310322 131.538635 25.066851 131.589661 24.760576 C 131.640686 24.454304 131.591644 24.08913 131.442413 23.66506 L 128.980438 16.338055 L 135.270828 11.814629 C 135.639908 11.555474 135.895157 11.288442 136.036514 11.013605 C 136.177872 10.73877 136.201431 10.456055 136.107193 10.165463 C 136.012955 9.88275 135.828384 9.670713 135.553543 9.529356 C 135.278717 9.388 134.913544 9.321222 134.458023 9.329102 L 126.742294 9.376221 L 124.398125 2.013874 C 124.256767 1.581926 124.078117 1.256069 123.862144 1.036156 C 123.646172 0.816242 123.385063 0.706322 123.078789 0.706322 C 122.780357 0.706322 122.523193 0.816242 122.307213 1.036156 C 122.09124 1.256069 121.91259 1.581926 121.77124 2.013874 L 119.427063 9.376221 L 111.711327 9.329102 C 111.255859 9.321222 110.890686 9.388 110.615814 9.529356 C 110.340935 9.670713 110.156403 9.88275 110.062164 10.165463 C 109.967926 10.456055 109.991486 10.73877 110.132843 11.013605 C 110.2742 11.288442 110.529411 11.555474 110.898529 11.814629 L 117.188911 16.338055 L 114.726944 23.66506 C 114.577744 24.08913 114.528641 24.454304 114.579697 24.760576 C 114.630753 25.066851 114.778 25.310322 115.021439 25.490921 Z M 78.657341 25.490921 C 78.90078 25.679398 79.175652 25.744186 79.481926 25.685287 C 79.7882 25.626389 80.121971 25.467361 80.483208 25.208206 L 86.714691 20.625883 L 92.957962 25.208206 C 93.319199 25.467361 93.652969 25.626389 93.959244 25.685287 C 94.265518 25.744186 94.54039 25.679398 94.783821 25.490921 C 95.02726 25.310322 95.174507 25.066851 95.225563 24.760576 C 95.276619 24.454304 95.227516 24.08913 95.078316 23.66506 L 92.616348 16.338055 L 98.906738 11.814629 C 99.275848 11.555474 99.531067 11.288442 99.672424 11.013605 C 99.813782 10.73877 99.837341 10.456055 99.743103 10.165463 C 99.648865 9.88275 99.464325 9.670713 99.189453 9.529356 C 98.914581 9.388 98.549408 9.321222 98.093933 9.329102 L 90.378197 9.376221 L 88.034027 2.013874 C 87.89267 1.581926 87.71402 1.256069 87.498047 1.036156 C 87.282074 0.816242 87.020966 0.706322 86.714691 0.706322 C 86.41626 0.706322 86.159096 0.816242 85.943123 1.036156 C 85.727142 1.256069 85.5485 1.581926 85.407143 2.013874 L 83.062973 9.376221 L 75.347237 9.329102 C 74.891762 9.321222 74.526588 9.388 74.251717 9.529356 C 73.976845 9.670713 73.792305 9.88275 73.698067 10.165463 C 73.603828 10.456055 73.627388 10.73877 73.768745 11.013605 C 73.910103 11.288442 74.165321 11.555474 74.534431 11.814629 L 80.824821 16.338055 L 78.362846 23.66506 C 78.213654 24.08913 78.164543 24.454304 78.215599 24.760576 C 78.266663 25.066851 78.41391 25.310322 78.657341 25.490921 Z M 42.293247 25.490921 C 42.536682 25.679398 42.811558 25.744186 43.117832 25.685287 C 43.424103 25.626389 43.757877 25.467361 44.11911 25.208206 L 50.350597 20.625883 L 56.593868 25.208206 C 56.955101 25.467361 57.288872 25.626389 57.595146 25.685287 C 57.901421 25.744186 58.176292 25.679398 58.419727 25.490921 C 58.663166 25.310322 58.810413 25.066851 58.861469 24.760576 C 58.912529 24.454304 58.863422 24.08913 58.714222 23.66506 L 56.252254 16.338055 L 62.542641 11.814629 C 62.911755 11.555474 63.166969 11.288442 63.308327 11.013605 C 63.449684 10.73877 63.473244 10.456055 63.379005 10.165463 C 63.284767 9.88275 63.100231 9.670713 62.825356 9.529356 C 62.550484 9.388 62.18531 9.321222 61.729839 9.329102 L 54.014103 9.376221 L 51.66993 2.013874 C 51.528572 1.581926 51.349926 1.256069 51.133953 1.036156 C 50.917976 0.816242 50.656872 0.706322 50.350597 0.706322 C 50.052166 0.706322 49.794998 0.816242 49.579025 1.036156 C 49.363049 1.256069 49.184402 1.581926 49.043045 2.013874 L 46.698875 9.376221 L 38.983139 9.329102 C 38.527664 9.321222 38.162495 9.388 37.887619 9.529356 C 37.612747 9.670713 37.428211 9.88275 37.333973 10.165463 C 37.239735 10.456055 37.263294 10.73877 37.404652 11.013605 C 37.546009 11.288442 37.801224 11.555474 38.170334 11.814629 L 44.460724 16.338055 L 41.998753 23.66506 C 41.849556 24.08913 41.800449 24.454304 41.851509 24.760576 C 41.902565 25.066851 42.049812 25.310322 42.293247 25.490921 Z M 5.929152 25.490921 C 6.172588 25.679398 6.447462 25.744186 6.753735 25.685287 C 7.060009 25.626389 7.393781 25.467361 7.755014 25.208206 L 13.986504 20.625883 L 20.229773 25.208206 C 20.591005 25.467361 20.924778 25.626389 21.23105 25.685287 C 21.537325 25.744186 21.812197 25.679398 22.055634 25.490921 C 22.29907 25.310322 22.446316 25.066851 22.497374 24.760576 C 22.548431 24.454304 22.499325 24.08913 22.350128 23.66506 L 19.888159 16.338055 L 26.178547 11.814629 C 26.547659 11.555474 26.802874 11.288442 26.944231 11.013605 C 27.085588 10.73877 27.109148 10.456055 27.01491 10.165463 C 26.920671 9.88275 26.736134 9.670713 26.461262 9.529356 C 26.186388 9.388 25.821215 9.321222 25.365744 9.329102 L 17.650005 9.376221 L 15.305836 2.013874 C 15.164478 1.581926 14.985831 1.256069 14.769856 1.036156 C 14.553883 0.816242 14.292777 0.706322 13.986504 0.706322 C 13.68807 0.706322 13.430903 0.816242 13.21493 1.036156 C 12.998955 1.256069 12.820308 1.581926 12.67895 2.013874 L 10.33478 9.376221 L 2.619042 9.329102 C 2.163571 9.321222 1.798398 9.388 1.523525 9.529356 C 1.248652 9.670713 1.064115 9.88275 0.969877 10.165463 C 0.875639 10.456055 0.899198 10.73877 1.040555 11.013605 C 1.181912 11.288442 1.437128 11.555474 1.806239 11.814629 L 8.096627 16.338055 L 5.634659 23.66506 C 5.485461 24.08913 5.436354 24.454304 5.487412 24.760576 C 5.53847 25.066851 5.685717 25.310322 5.929152 25.490921 Z"/>
</svg>
