<svg width="43" height="44" viewBox="0 0 43 44" xmlns="http://www.w3.org/2000/svg" xmlns:xlink="http://www.w3.org/1999/xlink">
	<path id="sun" fill="currentcolor" fill-rule="evenodd" stroke="none" d="M21.63 8.3a1.7 1.7 0 0 0 1.68-1.7V2.4c0-.93-.76-1.7-1.68-1.7-.94 0-1.7.77-1.7 1.7v4.2c0 .94.76 1.7 1.7 1.7Zm9.57 4a1.7 1.7 0 0 0 2.4 0l2.99-2.98c.64-.64.64-1.74 0-2.4a1.71 1.71 0 0 0-2.38 0l-3.01 3a1.71 1.71 0 0 0 0 2.39Zm-19.18 0c.64-.62.64-1.73.02-2.37L9.05 6.92a1.73 1.73 0 0 0-2.38 0 1.73 1.73 0 0 0-.02 2.38l2.99 3a1.7 1.7 0 0 0 2.38 0Zm9.59 19.56c5.43 0 9.94-4.51 9.94-9.96 0-5.47-4.51-9.98-9.94-9.98s-9.94 4.51-9.94 9.98c0 5.45 4.51 9.96 9.94 9.96Zm13.55-9.96c0 .92.79 1.68 1.7 1.68h4.2a1.7 1.7 0 0 0 1.68-1.68c0-.92-.76-1.7-1.68-1.7h-4.2c-.91 0-1.7.78-1.7 1.7Zm-27.09 0c0-.92-.78-1.7-1.7-1.7h-4.2A1.7 1.7 0 0 0 .5 21.9c0 .92.76 1.68 1.68 1.68h4.2c.91 0 1.7-.76 1.7-1.68Zm3.97 9.59a1.77 1.77 0 0 0-2.4 0l-3 2.99a1.73 1.73 0 0 0-.01 2.38c.64.62 1.74.64 2.4.02l2.99-3c.64-.65.64-1.73.02-2.4Zm19.16 0a1.71 1.71 0 0 0 0 2.38l3 3.03c.67.62 1.75.6 2.39-.02.64-.67.64-1.74 0-2.38l-3-3.01a1.75 1.75 0 0 0-2.4 0Zm-9.57 4c-.94 0-1.7.76-1.7 1.68v4.22a1.7 1.7 0 0 0 3.38 0v-4.22a1.7 1.7 0 0 0-1.68-1.68Z"/>
</svg>
