<svg xmlns="http://www.w3.org/2000/svg" viewBox="0 0 185 133.4">
	<defs>
	<linearGradient id="a" x2="185" y1="66.7" y2="66.7" gradientUnits="userSpaceOnUse">
		<stop offset="0" stop-color="#90cea1"/>
		<stop offset=".6" stop-color="#3cbec9"/>
		<stop offset="1" stop-color="#00b3e5"/>
	</linearGradient>
	</defs>
	<path d="M51 66.7A17.7 17.7 0 0 1 68.8 49a17.7 17.7 0 0 1 17.6 17.7 17.7 17.7 0 0 1-17.7 17.7h.1a17.7 17.7 0 0 1-17.6-17.7Zm82.7-31.3h33a17.7 17.7 0 0 0 17.6-17.7A17.7 17.7 0 0 0 166.6 0h-32.9a17.7 17.7 0 0 0-17.6 17.7 17.7 17.7 0 0 0 17.6 17.7Zm-113 98h64a17.7 17.7 0 0 0 17.6-17.7A17.7 17.7 0 0 0 84.6 98H20.7a17.7 17.7 0 0 0-17.6 17.7 17.7 17.7 0 0 0 17.6 17.7Zm84-49h6.2L125.5 49h-8.3l-9 23.2L99.4 49h-8.9Zm32.4 0h7.8V49h-7.8Zm22.2 0h25v-7.2H167V70h15.3v-7.2h-15.3v-6.6h16.3V49h-24Zm-149.2-49h7.8V6.9H28V0H0v6.9h10.1Zm28.9 0h7.8V20.1h15.1v15.3h7.8V0h-7.8v13.2H46.8V0H39Zm41.3 0h25v-7.2H88V21h15.3v-7.2H88V7.2h16.3V0h-24Zm-79 49H9V57.2h.1l9 27.2H24l9.3-27.1h.1v27.1h7.8V49H29.4l-8.1 23.1H21L13 49H1.2Zm112 49H126a24.6 24.6 0 0 0 7.6-1.1 19.5 19.5 0 0 0 6.3-3.4 16.4 16.4 0 0 0 4.4-5.5 17 17 0 0 0 1.7-7.6 18.5 18.5 0 0 0-1.7-8.3 15.1 15.1 0 0 0-4.5-5.5 18.6 18.6 0 0 0-6.7-3 33.5 33.5 0 0 0-8.1-1h-11.7Zm7.9-28.2h4.6a17.4 17.4 0 0 1 4.6.6 11.7 11.7 0 0 1 3.9 1.9 9 9 0 0 1 2.6 3.2 9.9 9.9 0 0 1 1 4.5 12 12 0 0 1-1 5 8.7 8.7 0 0 1-2.7 3.4 10.9 10.9 0 0 1-4 1.9 21.6 21.6 0 0 1-5 .5h-4.1Zm36 28.2h14.6a23.1 23.1 0 0 0 4.7-.5 13.4 13.4 0 0 0 4.3-1.6 9.4 9.4 0 0 0 3-3 8.5 8.5 0 0 0 1.3-4.7 9.2 9.2 0 0 0-.6-3.2 7.8 7.8 0 0 0-1.5-2.7 8.4 8.4 0 0 0-2.5-1.8 10 10 0 0 0-3.2-1v-.1a9.3 9.3 0 0 0 4.5-2.8 7.4 7.4 0 0 0 1.6-5 8.3 8.3 0 0 0-1.1-4.7 7.9 7.9 0 0 0-3-2.7 12.9 12.9 0 0 0-4.2-1.3 34.4 34.4 0 0 0-4.6-.3h-13.2Zm7.9-28.8h5.3a10.8 10.8 0 0 1 1.8.2 5.8 5.8 0 0 1 1.7.6 3.3 3.3 0 0 1 1.3 1 3.2 3.2 0 0 1 .4 1.9 3.6 3.6 0 0 1-.4 1.8 3.3 3.3 0 0 1-1.1 1.2 4.8 4.8 0 0 1-1.6.7 8.2 8.2 0 0 1-1.8.2H165Zm0 14.2h5.9a15.1 15.1 0 0 1 2 .1 7.8 7.8 0 0 1 2 .6 4 4 0 0 1 1.6 1.1 3.1 3.1 0 0 1 .6 2 3.7 3.7 0 0 1-.4 2 4 4 0 0 1-1.3 1.3 4.8 4.8 0 0 1-1.6.7 9 9 0 0 1-1.9.2h-7Z" style="fill:url(#a)"/>
</svg>
