<?xml version="1.0" encoding="UTF-8"?>
<!-- Generated by Pixelmator Pro 3.1.1 -->
<svg width="500" height="500" viewBox="0 0 500 500" xmlns="http://www.w3.org/2000/svg" xmlns:xlink="http://www.w3.org/1999/xlink">
    <path id="path1" fill="#12322D" fill-rule="evenodd" stroke="none" visibility="hidden" d="M 250 500 C 386.764709 500 500 386.519592 500 250 C 500 113.235291 386.519623 0 249.754898 0 C 113.235291 0 0 113.235291 0 250 C 0 386.519592 113.480392 500 250 500 Z M 250 458.333344 C 134.313721 458.333344 41.911766 365.686279 41.911766 250 C 41.911766 134.313721 134.068634 41.666656 249.754898 41.666656 C 365.441162 41.666656 458.333344 134.313721 458.333344 250 C 458.333344 365.686279 365.686279 458.333344 250 458.333344 Z M 223.039215 366.42157 C 231.127457 366.42157 237.990189 362.5 242.892151 354.901978 L 354.901947 178.676483 C 357.598053 173.774506 360.784302 168.382355 360.784302 162.990204 C 360.784302 151.960785 350.980377 144.852936 340.686279 144.852936 C 334.558838 144.852936 328.431366 148.774506 323.774506 155.882355 L 222.058823 319.117645 L 173.774506 256.617645 C 167.892151 248.774506 162.5 246.813721 155.637253 246.813721 C 145.098038 246.813721 136.764709 255.392151 136.764709 266.176453 C 136.764709 271.568634 138.970581 276.715698 142.401962 281.372559 L 202.205887 354.901978 C 208.333328 362.990173 214.950974 366.42157 223.039215 366.42157 Z"/>
    <path id="path2" fill="#12322D" fill-rule="evenodd" stroke="none" d="M 250 500 C 386.764709 500 500 386.519592 500 250 C 500 113.235291 386.519623 0 249.754898 0 C 113.235291 0 0 113.235291 0 250 C 0 386.519592 113.480392 500 250 500 Z M 250 458.333344 C 134.313721 458.333344 41.911766 365.686279 41.911766 250 C 41.911766 134.313721 134.068634 41.666656 249.754898 41.666656 C 365.441162 41.666656 458.333344 134.313721 458.333344 250 C 458.333344 365.686279 365.686279 458.333344 250 458.333344 Z M 136.274506 250 C 136.274506 262.009827 144.607849 270.098022 157.107849 270.098022 L 229.166672 270.098022 L 229.166672 342.401978 C 229.166672 354.65686 237.5 363.235291 249.509811 363.235291 C 261.764709 363.235291 270.34314 354.901978 270.34314 342.401978 L 270.34314 270.098022 L 342.647064 270.098022 C 354.901947 270.098022 363.480377 262.009827 363.480377 250 C 363.480377 237.745087 354.901947 229.166656 342.647064 229.166656 L 270.34314 229.166656 L 270.34314 157.107849 C 270.34314 144.607849 261.764709 136.029419 249.509811 136.029419 C 237.5 136.029419 229.166672 144.607849 229.166672 157.107849 L 229.166672 229.166656 L 157.107849 229.166656 C 144.607849 229.166656 136.274506 237.745087 136.274506 250 Z"/>
</svg>
