<?xml version="1.0" encoding="UTF-8"?>
<!-- Generated by Pixelmator Pro 3.2.3 -->
<svg width="45" height="45" viewBox="0 0 45 45" xmlns="http://www.w3.org/2000/svg" xmlns:xlink="http://www.w3.org/1999/xlink">
    <path id="path1" fill="currentcolor" fill-rule="evenodd" stroke="none" d="M 22.496094 44.996094 C 34.531387 44.996094 44.496094 35.031387 44.496094 22.996094 C 44.496094 10.982368 34.509819 0.996094 22.474525 0.996094 C 10.460799 0.996094 0.496094 10.982368 0.496094 22.996094 C 0.496094 35.031387 10.482368 44.996094 22.496094 44.996094 Z M 16.758839 36.109818 C 15.249035 36.109818 14.364721 35.268642 14.321584 33.758839 L 13.545114 16.180407 L 11.733349 16.180407 C 11.215702 16.180407 10.784329 15.770603 10.784329 15.252956 C 10.784329 14.713741 11.215702 14.282368 11.733349 14.282368 L 17.082369 14.282368 L 17.082369 12.492172 C 17.082369 10.65884 18.290211 9.472565 20.231388 9.472565 L 24.717663 9.472565 C 26.680407 9.472565 27.909819 10.65884 27.909819 12.492172 L 27.909819 14.282368 L 33.23727 14.282368 C 33.776485 14.282368 34.207859 14.713741 34.186291 15.252956 C 34.164722 15.770603 33.776485 16.180407 33.23727 16.180407 L 31.490211 16.180407 L 30.73531 33.758839 C 30.670603 35.268642 29.743153 36.109818 28.254917 36.109818 Z M 19.347075 14.282368 L 25.601976 14.282368 L 25.601976 12.621586 C 25.601976 12.03923 25.192173 11.650997 24.588251 11.650997 L 20.3608 11.650997 C 19.756878 11.650997 19.347075 12.03923 19.347075 12.621586 Z M 18.678446 32.65884 C 19.152956 32.65884 19.454918 32.335308 19.454918 31.903938 L 19.023544 18.919622 C 19.023544 18.445114 18.678446 18.143152 18.225506 18.143152 C 17.686291 18.143152 17.405897 18.445114 17.405897 18.919622 L 17.858839 31.903938 C 17.858839 32.335308 18.225506 32.65884 18.678446 32.65884 Z M 22.474525 32.65884 C 22.970604 32.65884 23.294132 32.335308 23.294132 31.903938 L 23.294132 18.919622 C 23.294132 18.445114 22.970604 18.143152 22.474525 18.143152 C 21.956879 18.143152 21.654917 18.445114 21.654917 18.919622 L 21.654917 31.903938 C 21.654917 32.335308 21.978447 32.65884 22.474525 32.65884 Z M 26.249035 32.65884 C 26.701977 32.65884 27.068644 32.335308 27.068644 31.903938 L 27.521584 18.919622 C 27.521584 18.445114 27.241192 18.143152 26.723545 18.143152 C 26.249035 18.143152 25.925505 18.445114 25.903936 18.919622 L 25.472565 31.903938 C 25.472565 32.335308 25.774525 32.65884 26.249035 32.65884 Z"/>
</svg>
