<svg width="45" height="45" viewBox="0 0 45 45" xmlns="http://www.w3.org/2000/svg">
	<path id="path1" fill="currentcolor" fill-rule="evenodd" stroke="none" d="M22.5 45c12.03 0 22-9.97 22-22 0-12.02-9.99-22-22.03-22A22.16 22.16 0 0 0 .5 23c0 12.03 9.98 22 22 22Zm-5.74-8.89c-1.51 0-2.4-.84-2.44-2.35l-.77-17.58h-1.82a.94.94 0 0 1-.95-.93c0-.54.44-.97.95-.97h5.35V12.5c0-1.83 1.21-3.02 3.15-3.02h4.49c1.96 0 3.19 1.19 3.19 3.02v1.8h5.33c.54 0 .97.42.95.96a.94.94 0 0 1-.95.93h-1.75l-.75 17.58c-.07 1.5-1 2.35-2.49 2.35Zm2.59-21.83h6.25v-1.66c0-.58-.4-.97-1.01-.97h-4.23c-.6 0-1.01.39-1.01.97Zm-.67 18.38c.47 0 .77-.32.77-.76l-.43-12.98c0-.47-.34-.78-.8-.78-.53 0-.81.3-.81.78l.45 12.98c0 .44.37.76.82.76Zm3.8 0c.5 0 .81-.32.81-.76V18.92c0-.47-.32-.78-.82-.78-.51 0-.82.3-.82.78V31.9c0 .44.33.76.82.76Zm3.77 0c.45 0 .82-.32.82-.76l.45-12.98c0-.47-.28-.78-.8-.78-.47 0-.8.3-.82.78l-.43 12.98c0 .44.3.76.78.76Z"/>
</svg>
