<svg width="500" height="500" viewBox="0 0 500 500" xmlns="http://www.w3.org/2000/svg" xmlns:xlink="http://www.w3.org/1999/xlink">
	<path id="path1" fill="currentcolor" fill-rule="evenodd" stroke="none" d="M250 500c136.76 0 250-113.48 250-250C500 113.24 386.52 0 249.75 0 113.24 0 0 113.24 0 250c0 136.52 113.48 250 250 250Zm0-41.67C134.31 458.33 41.91 365.7 41.91 250c0-115.69 92.16-208.33 207.84-208.33 115.7 0 208.58 92.64 208.58 208.33A207.54 207.54 0 0 1 250 458.33Zm-26.96-91.9c8.09 0 14.95-3.93 19.85-11.53L354.9 178.68c2.7-4.9 5.88-10.3 5.88-15.69 0-11.03-9.8-18.14-20.1-18.14-6.12 0-12.25 3.92-16.9 11.03L222.05 319.12l-48.29-62.5c-5.88-7.85-11.27-9.8-18.13-9.8-10.54 0-18.88 8.57-18.88 19.36 0 5.39 2.21 10.54 5.64 15.2l59.8 73.52c6.13 8.09 12.75 11.52 20.84 11.52Z"/>
</svg>
